<svg width="300" height="40" viewBox="0 0 300 40" fill="none" xmlns="http://www.w3.org/2000/svg">
<rect width="300" height="40" fill="#168348"/>
<mask id="mask0_2210_389" style="mask-type:luminance" maskUnits="userSpaceOnUse" x="14" y="6" width="44" height="28">
<path d="M57.8388 6.47534H14V33.5248H57.8388V6.47534Z" fill="white"/>
</mask>
<g mask="url(#mask0_2210_389)">
<path fill-rule="evenodd" clip-rule="evenodd" d="M52.4528 6.47534C53.1282 7.1244 53.6918 7.86532 54.1438 8.69816C53.391 9.40858 52.5977 10.0764 51.764 10.7018C51.6387 10.7436 51.5134 10.7436 51.3882 10.7018C50.2505 10.4018 49.1022 10.1513 47.9437 9.95045C46.9193 9.9383 45.8964 9.8966 44.875 9.82522C44.8025 9.76204 44.7607 9.67857 44.7498 9.57476C44.783 9.39837 44.8039 9.22099 44.8124 9.04254C46.0206 8.9597 47.1896 8.69885 48.3194 8.25986C48.445 7.90583 48.539 7.54054 48.6013 7.1641C49.1729 7.40298 49.747 7.63258 50.3235 7.85286C50.3131 7.45576 50.3235 7.05922 50.3548 6.66319C50.9924 6.99836 51.5873 7.3949 52.1397 7.85286C52.2835 7.40298 52.3879 6.94376 52.4528 6.47534Z" fill="#ECDDAA"/>
<path fill-rule="evenodd" clip-rule="evenodd" d="M55.695 8.80664C55.4976 8.81122 55.3145 8.8794 55.1458 9.01112C54.1524 9.92109 53.0878 10.7351 51.9519 11.4531C51.2457 11.8411 50.4942 11.9663 49.6973 11.8288C49.4972 12.0013 49.2885 12.1579 49.071 12.2984C48.7788 12.1523 48.4865 12.0061 48.1943 11.8601C47.7757 12.0798 47.3373 12.2468 46.8791 12.361C46.3847 12.2024 45.8941 12.0354 45.4074 11.8601C45.0536 11.9325 44.7197 12.0578 44.4053 12.2358C44.0866 12.0608 43.7839 11.8626 43.4973 11.6409C43.3928 11.5991 43.2885 11.5991 43.1841 11.6409C42.9059 11.7644 42.624 11.8792 42.3387 11.9853C42.0574 11.8298 41.7756 11.6733 41.4932 11.5157C41.4097 11.5053 41.3262 11.4949 41.2427 11.4844C40.8971 11.5735 40.5631 11.6987 40.2407 11.8601C39.9793 11.698 39.7079 11.5519 39.4265 11.4218C39.0214 11.6034 38.6038 11.7496 38.174 11.8601C37.758 11.7732 37.3405 11.7211 36.9214 11.7036C36.1955 12.3 35.3605 12.5504 34.4163 12.4549C34.1047 12.7359 33.7707 12.9863 33.4143 13.2063C32.9641 13.3279 32.5049 13.3906 32.0365 13.3942C31.8773 13.6603 31.7103 13.9212 31.5355 14.1768C31.1423 14.2826 30.7457 14.3765 30.3456 14.4586C30.1544 14.7478 29.9561 15.0295 29.7507 15.3039C29.4268 15.3515 29.1032 15.4036 28.7799 15.4604C28.4838 15.6937 28.1707 15.9024 27.8406 16.0866C27.0031 16.4667 26.168 16.8425 25.3355 17.2136C24.4841 17.3477 23.6281 17.3895 22.7678 17.3389C21.9923 17.2443 21.2199 17.1296 20.4506 16.9945C19.6205 17.1236 18.8064 17.3219 18.0081 17.5893C17.4938 17.728 16.9719 17.7697 16.4425 17.7145C15.9571 17.5176 15.4561 17.4132 14.9394 17.4014C14.6304 17.5646 14.3381 17.7525 14.0626 17.965C14.0246 18.0421 14.0037 18.1255 14 18.2154C14.1647 18.7433 14.3735 19.2547 14.6263 19.7495C14.7999 19.5277 14.9043 19.2772 14.9394 18.9982C15.5879 19.1237 16.235 19.2593 16.8808 19.4051C17.0412 19.5911 17.2082 19.7686 17.3819 19.9373C17.47 19.7357 17.5326 19.5269 17.5697 19.3112C18.4437 19.4256 19.3205 19.5195 20.2001 19.593C20.35 20.0985 20.4857 20.6098 20.6072 21.127C20.8054 20.6683 21.0038 20.209 21.2021 19.7495C22.0012 20.075 22.8154 20.3567 23.6445 20.5948C24.7972 20.7728 25.9454 20.9711 27.089 21.1896C27.1781 21.2027 27.2616 21.234 27.3395 21.2836C26.7345 21.3149 26.1291 21.3253 25.5234 21.3149C25.104 21.308 24.6865 21.3289 24.2708 21.3775C24.1742 21.8889 24.0385 22.3898 23.8637 22.8802C23.7514 23.0553 23.6157 23.2118 23.4567 23.3499C22.8611 23.6789 22.2557 23.992 21.6405 24.2891C21.3676 24.2781 21.0962 24.2573 20.8264 24.2264L20.4506 24.79C20.2835 24.8108 20.1166 24.8317 19.9496 24.8526C19.7779 25.179 19.6422 25.5233 19.5425 25.8857C19.2911 25.6239 19.0301 25.3734 18.7596 25.1344C18.7168 25.5448 18.675 25.9518 18.6344 26.3553C17.9454 26.7005 17.2356 26.9718 16.5051 27.1693C16.9514 26.8275 17.3794 26.4623 17.7889 26.0736C18.2671 25.0337 18.8099 24.0319 19.4172 23.0681C19.6729 22.4066 19.5999 21.8118 19.198 21.2836C18.089 22.7696 16.92 24.2098 15.6909 25.604C15.5383 25.6467 15.4025 25.6153 15.2839 25.51C15.2049 25.5263 15.1423 25.568 15.096 25.6353C14.7726 26.2405 14.4177 26.825 14.0313 27.3885C13.9896 27.5972 13.9896 27.8059 14.0313 28.0146C14.2065 28.2525 14.4048 28.4716 14.6263 28.6721C15.4445 28.8752 16.2587 28.8543 17.0687 28.6095C17.988 28.2856 18.8856 27.9099 19.7617 27.4824C21.0739 27.0553 22.3891 26.6379 23.7072 26.2301C24.3229 26.0446 24.9491 25.9403 25.586 25.917C24.7111 26.3544 23.8344 26.7926 22.9557 27.2319C23.4016 27.3755 23.8608 27.4798 24.3335 27.545C25.6463 27.7129 26.9615 27.7337 28.279 27.6076C29.2961 27.369 30.319 27.1603 31.3476 26.9815C32.2273 26.9713 33.1041 27.0235 33.978 27.138C34.1863 27.1038 34.3951 27.0725 34.6042 27.0441C35.0635 26.8771 35.5228 26.7102 35.982 26.5432C36.3339 26.4619 36.6888 26.441 37.0467 26.4806C36.5874 26.7519 36.1282 27.0233 35.6689 27.2946C35.1343 27.7907 34.8525 28.4064 34.8234 29.1417C34.8218 29.7487 34.8114 30.354 34.7921 30.9575C34.5341 31.0551 34.2837 31.17 34.0406 31.3019C33.9222 31.3694 33.8596 31.4737 33.8527 31.615C33.9011 31.9235 33.9742 32.2261 34.0719 32.5229C34.5473 32.1757 35.0169 31.8208 35.481 31.4584C35.5019 31.5106 35.5228 31.5628 35.5437 31.615C35.3471 32.2526 35.3367 32.8892 35.5123 33.5247C35.85 33.0827 36.1631 32.6235 36.4517 32.1472C36.7044 32.5475 36.9341 32.9649 37.1406 33.3995C37.1838 33.4531 37.2359 33.4949 37.2972 33.5247C37.5323 33.1171 37.7515 32.6997 37.9548 32.2724C38.0002 32.2374 38.0523 32.2166 38.1113 32.2098C38.7512 32.4543 39.3879 32.7048 40.0215 32.9612C40.0632 32.8986 40.0632 32.836 40.0215 32.7733C39.51 32.2203 38.9986 31.6671 38.4871 31.114C39.0279 30.7022 39.5394 30.2534 40.0215 29.7678C40.6913 28.9691 40.9836 28.0508 40.8982 27.0128C40.5106 25.3733 39.5399 24.2358 37.9861 23.6003C37.3767 23.543 36.7712 23.4595 36.1699 23.3499C35.8234 23.1662 35.5103 22.9366 35.2305 22.6611C36.0926 22.7246 36.9484 22.8499 37.7982 23.0368C38.3968 23.1794 38.9604 23.409 39.4891 23.7255C40.2257 24.3158 40.852 25.0045 41.3679 25.7918C42.2485 25.6275 43.1252 25.4292 43.9982 25.197C44.1832 24.702 44.4024 24.2219 44.6558 23.7569C45.0748 23.4169 45.5445 23.1664 46.065 23.0054C46.0858 22.9533 46.1067 22.9011 46.1276 22.8489C45.7558 21.6567 45.4113 20.4565 45.0942 19.2486C44.9997 18.4788 44.9788 17.7065 45.0316 16.9319C45.1265 16.1031 45.5753 15.5918 46.3781 15.3978C47.7348 15.2515 48.8412 15.7107 49.6973 16.7753C49.1477 16.5326 48.5841 16.303 48.0064 16.0866C46.875 15.7808 46.0921 16.1669 45.6579 17.2449C45.6134 17.7733 45.6552 18.2951 45.7831 18.8103C46.1671 20.1498 46.5637 21.4855 46.973 22.8176L47.1609 23.1933C47.643 23.6789 48.1545 24.1276 48.6953 24.5395C47.8045 24.271 46.8964 24.0518 45.971 23.8821C45.4035 23.9073 45.0069 24.1786 44.7811 24.696C44.6432 25.4628 44.5806 26.2351 44.5932 27.0128C44.8283 26.647 45.0788 26.2921 45.3447 25.9483C46.7344 24.5288 46.8806 24.6123 45.7831 26.1988C45.5743 26.6156 45.4699 27.0539 45.47 27.5137C46.1865 26.8574 46.9484 26.2835 47.7559 25.7918C47.4306 26.3499 47.2323 26.9447 47.1609 27.5763C48.1545 26.8963 49.0939 26.145 49.9791 25.3222C50.1732 25.0326 50.3193 24.7195 50.4175 24.383C50.5636 23.7986 50.7098 23.2141 50.8559 22.6298C50.9747 22.0024 50.9747 21.3763 50.8559 20.7513C50.6426 20.3248 50.4339 19.9073 50.2297 19.499C50.4197 19.7101 50.6284 19.8979 50.8559 20.0626C51.0489 20.2604 51.1951 20.4899 51.2943 20.7513C51.3719 21.2384 51.4555 21.7185 51.5448 22.1915C51.8815 21.8341 52.1947 21.4584 52.4842 21.0644C53.4619 20.1385 54.4221 19.1993 55.365 18.2467C56.6658 16.5777 57.2503 14.6784 57.1186 12.5489C57.3112 11.9503 57.5408 11.3659 57.8075 10.7956C57.8493 10.4408 57.8493 10.086 57.8075 9.73119C57.1927 9.38737 56.556 9.08469 55.8974 8.82328C55.8283 8.81068 55.7609 8.80512 55.695 8.80664ZM23.2688 18.1215C23.7691 18.1943 24.2283 18.3717 24.6466 18.6537C24.1578 18.7712 23.6672 18.8651 23.1749 18.9355C22.9935 18.7305 22.9726 18.5009 23.1122 18.2467C23.1745 18.2113 23.2267 18.1696 23.2688 18.1215Z" fill="#ECDDAA"/>
<path fill-rule="evenodd" clip-rule="evenodd" d="M33.9779 10.7331C34.4793 10.7227 34.9803 10.7331 35.4809 10.7645C35.7837 10.7984 36.0759 10.8715 36.3577 10.9836C36.1942 11.2722 36.0063 11.5435 35.794 11.7976C35.1479 11.8497 34.5007 11.881 33.8526 11.8915C33.6339 12.1723 33.3939 12.4332 33.1324 12.6742C32.1901 12.7801 31.3759 13.1558 30.6899 13.8013C31.1487 12.1009 32.2447 11.0782 33.9779 10.7331Z" fill="#ECDDAA"/>
</g>
<path d="M69.9471 26.5573C67.9944 26.5573 66.3714 25.9106 65.0782 24.6172C63.7971 23.3113 63.1567 21.6946 63.1567 19.7669C63.1567 17.8393 63.7971 16.2287 65.0782 14.9353C66.3714 13.6295 67.9944 12.9766 69.9471 12.9766C71.1163 12.9766 72.1983 13.2502 73.193 13.7974C74.1878 14.3322 74.9713 15.0659 75.5435 15.9986L72.9692 17.491C72.6833 16.9811 72.2729 16.5894 71.7379 16.3158C71.203 16.0297 70.6061 15.8867 69.9471 15.8867C68.7905 15.8867 67.8638 16.2412 67.1675 16.95C66.4834 17.6589 66.1415 18.5979 66.1415 19.7669C66.1415 20.936 66.4834 21.8749 67.1675 22.5838C67.8638 23.2927 68.7905 23.6471 69.9471 23.6471C70.6061 23.6471 71.203 23.5041 71.7379 23.2181C72.285 22.932 72.6954 22.5403 72.9692 22.0428L75.5435 23.5352C74.9839 24.4679 74.2065 25.2079 73.2117 25.7551C72.2169 26.2899 71.1284 26.5573 69.9471 26.5573ZM83.8076 26.2961L81.3452 22.0055H79.9274V26.2961H76.9427V13.2377H82.166C83.4093 13.2377 84.4666 13.673 85.3373 14.5436C86.2076 15.4141 86.6431 16.4712 86.6431 17.7149C86.6431 18.5108 86.4193 19.2508 85.9716 19.9348C85.536 20.6064 84.9577 21.1287 84.2367 21.5018L87.0162 26.2961H83.8076ZM79.9274 16.036V19.3938H82.166C82.5764 19.3938 82.9243 19.2321 83.2107 18.9088C83.5091 18.5855 83.6584 18.1875 83.6584 17.7149C83.6584 17.2423 83.5091 16.8443 83.2107 16.521C82.9243 16.1976 82.5764 16.036 82.166 16.036H79.9274ZM99.2808 24.5985C97.9629 25.9043 96.3586 26.5573 94.4679 26.5573C92.5777 26.5573 90.9734 25.9043 89.655 24.5985C88.337 23.2927 87.6776 21.6822 87.6776 19.7669C87.6776 17.8517 88.337 16.2412 89.655 14.9353C90.9734 13.6295 92.5777 12.9766 94.4679 12.9766C96.3586 12.9766 97.9629 13.6295 99.2808 14.9353C100.599 16.2412 101.258 17.8517 101.258 19.7669C101.258 21.6822 100.599 23.2927 99.2808 24.5985ZM91.7443 22.5651C92.4784 23.2865 93.3859 23.6471 94.4679 23.6471C95.5499 23.6471 96.4519 23.2865 97.1729 22.5651C97.9069 21.8438 98.2735 20.9111 98.2735 19.7669C98.2735 18.6228 97.9069 17.69 97.1729 16.9687C96.4519 16.2474 95.5499 15.8867 94.4679 15.8867C93.3859 15.8867 92.4784 16.2474 91.7443 16.9687C91.0233 17.69 90.6623 18.6228 90.6623 19.7669C90.6623 20.9111 91.0233 21.8438 91.7443 22.5651ZM109.17 26.5573C107.217 26.5573 105.594 25.9106 104.301 24.6172C103.02 23.3113 102.379 21.6946 102.379 19.7669C102.379 17.8393 103.02 16.2287 104.301 14.9353C105.594 13.6295 107.217 12.9766 109.17 12.9766C110.338 12.9766 111.42 13.2502 112.416 13.7974C113.41 14.3322 114.194 15.0659 114.766 15.9986L112.192 17.491C111.905 16.9811 111.495 16.5894 110.961 16.3158C110.426 16.0297 109.829 15.8867 109.17 15.8867C108.013 15.8867 107.086 16.2412 106.39 16.95C105.706 17.6589 105.364 18.5979 105.364 19.7669C105.364 20.936 105.706 21.8749 106.39 22.5838C107.086 23.2927 108.013 23.6471 109.17 23.6471C109.829 23.6471 110.426 23.5041 110.961 23.2181C111.508 22.932 111.918 22.5403 112.192 22.0428L114.766 23.5352C114.207 24.4679 113.429 25.2079 112.434 25.7551C111.439 26.2899 110.351 26.5573 109.17 26.5573ZM127.026 24.5985C125.708 25.9043 124.104 26.5573 122.213 26.5573C120.323 26.5573 118.719 25.9043 117.4 24.5985C116.082 23.2927 115.423 21.6822 115.423 19.7669C115.423 17.8517 116.082 16.2412 117.4 14.9353C118.719 13.6295 120.323 12.9766 122.213 12.9766C124.104 12.9766 125.708 13.6295 127.026 14.9353C128.345 16.2412 129.004 17.8517 129.004 19.7669C129.004 21.6822 128.345 23.2927 127.026 24.5985ZM119.49 22.5651C120.224 23.2865 121.131 23.6471 122.213 23.6471C123.295 23.6471 124.197 23.2865 124.918 22.5651C125.652 21.8438 126.019 20.9111 126.019 19.7669C126.019 18.6228 125.652 17.69 124.918 16.9687C124.197 16.2474 123.295 15.8867 122.213 15.8867C121.131 15.8867 120.224 16.2474 119.49 16.9687C118.769 17.69 118.408 18.6228 118.408 19.7669C118.408 20.9111 118.769 21.8438 119.49 22.5651Z" fill="#ECDDAA"/>
<path d="M281.251 18.6276C281.251 18.8628 281.378 19.0509 281.632 19.192C281.895 19.3238 282.21 19.4413 282.577 19.5448C282.953 19.6389 283.33 19.7518 283.706 19.8835C284.082 20.0152 284.397 20.241 284.651 20.5608C284.915 20.8713 285.047 21.2664 285.047 21.7462C285.047 22.4235 284.783 22.955 284.256 23.3407C283.739 23.7264 283.085 23.9193 282.295 23.9193C281.599 23.9193 281.001 23.7735 280.503 23.4818C280.004 23.1902 279.642 22.7857 279.416 22.2683L280.729 21.5063C280.973 22.1836 281.495 22.5223 282.295 22.5223C283.095 22.5223 283.494 22.2589 283.494 21.732C283.494 21.5063 283.363 21.3228 283.099 21.1817C282.845 21.0406 282.53 20.923 282.154 20.8289C281.787 20.7255 281.415 20.6079 281.039 20.4762C280.663 20.3445 280.343 20.1281 280.079 19.827C279.825 19.5166 279.698 19.1262 279.698 18.6558C279.698 18.0067 279.943 17.4846 280.432 17.0895C280.931 16.6944 281.547 16.4968 282.281 16.4968C282.864 16.4968 283.381 16.6285 283.833 16.8919C284.294 17.1459 284.647 17.5034 284.891 17.9644L283.607 18.684C283.363 18.1478 282.921 17.8797 282.281 17.8797C281.989 17.8797 281.745 17.9456 281.547 18.0773C281.349 18.1996 281.251 18.383 281.251 18.6276Z" fill="#ECDDAA"/>
<path d="M275.532 16.4968C276.341 16.4968 276.994 16.7555 277.493 17.2729C277.992 17.7903 278.241 18.5006 278.241 19.4037V23.7358H276.717V19.5589C276.717 19.0321 276.576 18.6276 276.294 18.3454C276.011 18.0632 275.626 17.922 275.136 17.922C274.6 17.922 274.167 18.0914 273.838 18.43C273.509 18.7593 273.344 19.2673 273.344 19.954V23.7358H271.82V16.6803H273.344V17.5834C273.805 16.859 274.534 16.4968 275.532 16.4968Z" fill="#ECDDAA"/>
<path d="M266.717 23.9193C265.682 23.9193 264.803 23.5618 264.078 22.8468C263.354 22.1319 262.992 21.2523 262.992 20.208C262.992 19.1638 263.354 18.2842 264.078 17.5693C264.803 16.8543 265.682 16.4968 266.717 16.4968C267.761 16.4968 268.641 16.8543 269.356 17.5693C270.08 18.2842 270.442 19.1638 270.442 20.208C270.442 21.2523 270.08 22.1319 269.356 22.8468C268.641 23.5618 267.761 23.9193 266.717 23.9193ZM265.151 21.8026C265.574 22.2259 266.096 22.4376 266.717 22.4376C267.338 22.4376 267.86 22.2259 268.283 21.8026C268.707 21.3793 268.918 20.8478 268.918 20.208C268.918 19.5683 268.707 19.0368 268.283 18.6135C267.86 18.1902 267.338 17.9785 266.717 17.9785C266.096 17.9785 265.574 18.1902 265.151 18.6135C264.727 19.0368 264.516 19.5683 264.516 20.208C264.516 20.8478 264.727 21.3793 265.151 21.8026Z" fill="#ECDDAA"/>
<path d="M261.533 15.3399C261.344 15.5281 261.119 15.6221 260.855 15.6221C260.592 15.6221 260.361 15.5281 260.164 15.3399C259.976 15.1424 259.882 14.9119 259.882 14.6485C259.882 14.3851 259.976 14.1593 260.164 13.9711C260.352 13.7736 260.582 13.6748 260.855 13.6748C261.128 13.6748 261.359 13.7736 261.547 13.9711C261.735 14.1593 261.829 14.3851 261.829 14.6485C261.829 14.9119 261.73 15.1424 261.533 15.3399ZM260.093 23.736V16.6805H261.617V23.736H260.093Z" fill="#ECDDAA"/>
<path d="M258.711 18.1479H256.961V21.5346C256.961 21.8262 257.027 22.0379 257.159 22.1696C257.29 22.2919 257.483 22.3625 257.737 22.3813C258.001 22.3907 258.325 22.386 258.711 22.3672V23.7359C257.544 23.8771 256.707 23.7783 256.199 23.4396C255.691 23.0915 255.437 22.4565 255.437 21.5346V18.1479H254.139V16.6804H255.437V15.1564L256.961 14.7048V16.6804H258.711V18.1479Z" fill="#ECDDAA"/>
<path d="M251.468 16.6804H252.992V23.736H251.468V22.8329C251.007 23.5572 250.278 23.9194 249.281 23.9194C248.472 23.9194 247.818 23.6607 247.319 23.1433C246.821 22.6259 246.571 21.9156 246.571 21.0125V16.6804H248.095V20.8573C248.095 21.3841 248.236 21.7886 248.519 22.0709C248.801 22.3531 249.187 22.4942 249.676 22.4942C250.212 22.4942 250.645 22.3296 250.974 22.0003C251.303 21.6616 251.468 21.1489 251.468 20.4622V16.6804Z" fill="#ECDDAA"/>
<path d="M243.419 23.7359V13.4348H244.943V23.7359H243.419Z" fill="#ECDDAA"/>
<path d="M238.316 23.9193C237.281 23.9193 236.401 23.5618 235.677 22.8468C234.953 22.1319 234.59 21.2523 234.59 20.208C234.59 19.1638 234.953 18.2842 235.677 17.5693C236.401 16.8543 237.281 16.4968 238.316 16.4968C239.36 16.4968 240.239 16.8543 240.954 17.5693C241.679 18.2842 242.041 19.1638 242.041 20.208C242.041 21.2523 241.679 22.1319 240.954 22.8468C240.239 23.5618 239.36 23.9193 238.316 23.9193ZM236.749 21.8026C237.173 22.2259 237.695 22.4376 238.316 22.4376C238.937 22.4376 239.459 22.2259 239.882 21.8026C240.305 21.3793 240.517 20.8478 240.517 20.208C240.517 19.5683 240.305 19.0368 239.882 18.6135C239.459 18.1902 238.937 17.9785 238.316 17.9785C237.695 17.9785 237.173 18.1902 236.749 18.6135C236.326 19.0368 236.114 19.5683 236.114 20.208C236.114 20.8478 236.326 21.3793 236.749 21.8026Z" fill="#ECDDAA"/>
<path d="M229.994 23.9195C229.043 23.9195 228.234 23.7031 227.566 23.2704C226.908 22.8376 226.447 22.245 226.184 21.4924L227.581 20.6739C227.976 21.784 228.794 22.339 230.036 22.339C230.647 22.339 231.104 22.2214 231.405 21.9862C231.715 21.7417 231.87 21.4265 231.87 21.0408C231.87 20.6363 231.706 20.3305 231.376 20.1236C231.047 19.9072 230.464 19.672 229.627 19.418C229.156 19.2769 228.775 19.1452 228.484 19.0229C228.192 18.9006 227.882 18.7313 227.552 18.5149C227.233 18.2891 226.993 18.0116 226.833 17.6824C226.673 17.3531 226.593 16.9674 226.593 16.5252C226.593 15.6504 226.903 14.9589 227.524 14.4509C228.145 13.9335 228.893 13.6748 229.768 13.6748C230.558 13.6748 231.249 13.8677 231.842 14.2534C232.435 14.6391 232.891 15.1706 233.211 15.8479L231.842 16.6381C231.428 15.7162 230.737 15.2552 229.768 15.2552C229.297 15.2552 228.921 15.3681 228.639 15.5939C228.357 15.8103 228.216 16.1066 228.216 16.4829C228.216 16.8498 228.357 17.1414 228.639 17.3578C228.931 17.5648 229.453 17.7858 230.205 18.021C230.582 18.1433 230.854 18.2374 231.024 18.3032C231.202 18.3597 231.447 18.4538 231.757 18.5855C232.077 18.7172 232.317 18.8489 232.477 18.9806C232.637 19.1123 232.806 19.2769 232.985 19.4745C233.173 19.672 233.305 19.8978 233.38 20.1518C233.456 20.4058 233.493 20.6927 233.493 21.0126C233.493 21.9063 233.169 22.6165 232.519 23.1434C231.88 23.6608 231.038 23.9195 229.994 23.9195Z" fill="#ECDDAA"/>
<path d="M220.503 16.6804H222.126L219.417 23.9618C218.739 25.7868 217.592 26.6523 215.974 26.5582V25.133C216.453 25.1612 216.839 25.0577 217.131 24.8225C217.422 24.5968 217.662 24.2393 217.85 23.7501L217.921 23.609L214.929 16.6804H216.595L218.697 21.8028L220.503 16.6804Z" fill="#ECDDAA"/>
<path d="M212.455 23.7359V13.4348H213.979V23.7359H212.455Z" fill="#ECDDAA"/>
<path d="M209.154 13.8582H210.678V23.7359H209.154V22.7199C208.58 23.5196 207.757 23.9194 206.685 23.9194C205.716 23.9194 204.888 23.5619 204.201 22.8469C203.514 22.1226 203.171 21.243 203.171 20.2082C203.171 19.1639 203.514 18.2843 204.201 17.5694C204.888 16.8544 205.716 16.4969 206.685 16.4969C207.757 16.4969 208.58 16.892 209.154 17.6823V13.8582ZM205.33 21.8309C205.753 22.2543 206.285 22.4659 206.924 22.4659C207.564 22.4659 208.096 22.2543 208.519 21.8309C208.942 21.3982 209.154 20.8573 209.154 20.2082C209.154 19.559 208.942 19.0228 208.519 18.5995C208.096 18.1667 207.564 17.9504 206.924 17.9504C206.285 17.9504 205.753 18.1667 205.33 18.5995C204.907 19.0228 204.695 19.559 204.695 20.2082C204.695 20.8573 204.907 21.3982 205.33 21.8309Z" fill="#ECDDAA"/>
<path d="M199.216 16.4968C200.025 16.4968 200.679 16.7555 201.177 17.2729C201.676 17.7903 201.925 18.5006 201.925 19.4037V23.7358H200.401V19.5589C200.401 19.0321 200.26 18.6276 199.978 18.3454C199.696 18.0632 199.31 17.922 198.821 17.922C198.285 17.922 197.852 18.0914 197.523 18.43C197.193 18.7593 197.029 19.2673 197.029 19.954V23.7358H195.505V16.6803H197.029V17.5834C197.49 16.859 198.219 16.4968 199.216 16.4968Z" fill="#ECDDAA"/>
<path d="M188.491 20.8572C188.604 21.3934 188.863 21.8073 189.267 22.0989C189.672 22.3812 190.166 22.5223 190.749 22.5223C191.558 22.5223 192.165 22.2306 192.569 21.6474L193.825 22.3812C193.129 23.4066 192.099 23.9193 190.735 23.9193C189.587 23.9193 188.66 23.5712 187.955 22.875C187.249 22.1695 186.896 21.2805 186.896 20.208C186.896 19.1544 187.245 18.2748 187.941 17.5693C188.637 16.8543 189.531 16.4968 190.622 16.4968C191.657 16.4968 192.503 16.859 193.162 17.5834C193.83 18.3078 194.164 19.1873 194.164 20.2222C194.164 20.3821 194.145 20.5938 194.107 20.8572H188.491ZM188.477 19.6154H192.626C192.522 19.0415 192.282 18.6088 191.906 18.3172C191.539 18.0255 191.106 17.8797 190.608 17.8797C190.043 17.8797 189.573 18.0349 189.197 18.3454C188.82 18.6558 188.58 19.0792 188.477 19.6154Z" fill="#ECDDAA"/>
<path d="M185.437 15.3399C185.249 15.5281 185.023 15.6221 184.76 15.6221C184.497 15.6221 184.266 15.5281 184.069 15.3399C183.88 15.1424 183.786 14.9119 183.786 14.6485C183.786 14.3851 183.88 14.1593 184.069 13.9711C184.257 13.7736 184.487 13.6748 184.76 13.6748C185.033 13.6748 185.263 13.7736 185.451 13.9711C185.64 14.1593 185.734 14.3851 185.734 14.6485C185.734 14.9119 185.635 15.1424 185.437 15.3399ZM183.998 23.736V16.6805H185.522V23.736H183.998Z" fill="#ECDDAA"/>
<path d="M180.699 17.8658C181.085 16.9909 181.809 16.5535 182.872 16.5535V18.2045C182.289 18.1668 181.781 18.3079 181.348 18.6278C180.915 18.9382 180.699 19.4557 180.699 20.18V23.736H179.175V16.6805H180.699V17.8658Z" fill="#ECDDAA"/>
<path d="M177.756 15.4104H173.593V18.1762H177.614V19.7284H173.593V23.7359H171.97V13.8582H177.756V15.4104Z" fill="#ECDDAA"/>
<path d="M165.713 16.6804H167.378L164.627 23.736H162.863L160.111 16.6804H161.776L163.752 22.0426L165.713 16.6804Z" fill="#ECDDAA"/>
<path d="M154.191 20.8572C154.304 21.3934 154.563 21.8073 154.968 22.0989C155.372 22.3812 155.866 22.5223 156.449 22.5223C157.258 22.5223 157.865 22.2306 158.27 21.6474L159.525 22.3812C158.829 23.4066 157.799 23.9193 156.435 23.9193C155.287 23.9193 154.361 23.5712 153.655 22.875C152.95 22.1695 152.597 21.2805 152.597 20.208C152.597 19.1544 152.945 18.2748 153.641 17.5693C154.337 16.8543 155.231 16.4968 156.322 16.4968C157.357 16.4968 158.204 16.859 158.862 17.5834C159.53 18.3078 159.864 19.1873 159.864 20.2222C159.864 20.3821 159.845 20.5938 159.808 20.8572H154.191ZM154.177 19.6154H158.326C158.223 19.0415 157.983 18.6088 157.606 18.3172C157.239 18.0255 156.807 17.8797 156.308 17.8797C155.744 17.8797 155.273 18.0349 154.897 18.3454C154.521 18.6558 154.281 19.0792 154.177 19.6154Z" fill="#ECDDAA"/>
<path d="M146.884 13.8582C148.239 13.8582 149.363 14.3332 150.257 15.2834C151.16 16.2335 151.611 17.4047 151.611 18.797C151.611 20.1799 151.16 21.3512 150.257 22.3107C149.363 23.2609 148.239 23.7359 146.884 23.7359H143.004V13.8582H146.884ZM146.884 22.1837C147.816 22.1837 148.573 21.8639 149.156 21.2242C149.749 20.5845 150.045 19.7754 150.045 18.797C150.045 17.8093 149.749 17.0002 149.156 16.3699C148.573 15.7302 147.816 15.4104 146.884 15.4104H144.626V22.1837H146.884Z" fill="#ECDDAA"/>
</svg>
