<svg width="70" height="70" viewBox="0 0 70 70" fill="none" xmlns="http://www.w3.org/2000/svg">
<g clip-path="url(#clip0_2199_468)">
<path fill-rule="evenodd" clip-rule="evenodd" d="M12.994 44.832C13.4461 44.8207 13.8781 44.9106 14.29 45.102C15.5124 45.7312 16.7723 46.2712 18.07 46.722C18.7767 47.0694 19.4247 47.5014 20.014 48.0181C22.0119 50.0161 24.0099 52.0142 26.0079 54.0122C27.6236 55.9521 29.2796 57.8602 30.9759 59.7363C31.65 60.5447 32.2979 61.3728 32.9199 62.2204C33.6805 63.0171 34.4725 63.7731 35.2959 64.4884C36.968 63.2691 38.372 61.793 39.5079 60.0603C41.0199 58.3323 42.5319 56.6043 44.0439 54.8762C46.4379 52.4821 48.8318 50.0882 51.2259 47.6941C51.5858 47.4421 51.9459 47.19 52.3059 46.9381C53.6199 46.404 54.9159 45.828 56.1939 45.21C56.8678 44.9189 57.5517 44.883 58.2458 45.102C59.4806 45.8179 60.5786 46.6998 61.5398 47.7481C61.5907 47.9366 61.6627 48.1167 61.7558 48.2881C63.6639 54.8762 65.5718 61.4644 67.4798 68.0525C67.677 69.2233 67.191 69.9254 66.0218 70.1585C61.1259 70.2306 56.2298 70.2306 51.3339 70.1585C50.4965 70.0074 50.1185 69.5214 50.1999 68.7005C51.8092 63.9799 53.6092 59.3358 55.5999 54.7682C55.6921 54.3227 55.656 53.8907 55.4919 53.4722C54.6322 52.6017 53.8402 52.6737 53.1159 53.6882C51.8596 56.0568 50.7796 58.5049 49.8759 61.0323C48.9398 63.6244 48.0039 66.2165 47.0679 68.8085C46.7658 69.6355 46.1718 70.0854 45.2859 70.1585C42.4059 70.2306 39.5259 70.2306 36.6459 70.1585C36.2253 69.9662 35.7933 69.8042 35.3499 69.6725C34.8854 69.8453 34.4173 70.0073 33.9459 70.1585C31.0659 70.2306 28.186 70.2306 25.3059 70.1585C24.6772 70.0155 24.1912 69.6735 23.8479 69.1325C22.2819 64.7407 20.6259 60.3847 18.88 56.0642C18.4755 55.2192 18.0435 54.3912 17.584 53.5802C16.6537 52.5528 15.8256 52.6248 15.1 53.7962C15.0279 54.0842 15.0279 54.3722 15.1 54.6602C17.1529 59.3434 18.9709 64.1135 20.554 68.9705C20.5496 69.6233 20.2256 70.0192 19.582 70.1585C14.4636 70.2649 9.35166 70.229 4.24598 70.0505C3.33716 69.5809 3.0312 68.843 3.32798 67.8365C5.09054 61.2887 6.9625 54.7725 8.94397 48.2881C9.56853 47.1235 10.4505 46.2055 11.59 45.534C12.0512 45.2676 12.5192 45.0335 12.994 44.832Z" fill="white"/>
<path fill-rule="evenodd" clip-rule="evenodd" d="M37.9324 0.00125181C37.6496 0.00643592 37.3647 0.0277985 37.0779 0.0651673C36.5045 0.238403 35.9284 0.400406 35.3499 0.551178C34.8009 0.422223 34.2609 0.26022 33.7299 0.0651673C32.9028 0.0111661 32.0747 -0.00676229 31.246 0.0111661C28.7832 0.869455 26.7133 2.30957 25.036 4.33126C24.2613 5.53882 23.3254 6.61885 22.228 7.57132L20.932 9.51537C19.2871 12.8544 18.4952 16.3826 18.556 20.0995C19.1681 24.6025 20.3201 28.9587 22.012 33.1678C22.7313 34.8777 23.7573 36.3717 25.09 37.6499C31.3763 41.9924 37.8564 42.2804 44.5299 38.5139C46.6352 36.9908 48.1291 34.9927 49.0119 32.5198C49.5666 30.8197 50.1425 29.1277 50.7399 27.4437C50.9767 26.1724 51.2647 24.9123 51.6039 23.6636C52.1993 21.2055 52.3434 18.7214 52.0359 16.2115C51.6687 14.5265 51.2007 12.8705 50.6319 11.2434C49.8311 9.20746 48.607 7.4794 46.9599 6.05929C45.3893 3.48129 43.2112 1.59123 40.4259 0.389174C39.6121 0.115064 38.781 -0.0143005 37.9324 0.00125181ZM46.2752 16.5313C47.1319 16.5363 47.9902 16.5737 48.8499 16.6435C48.7847 17.4695 48.4966 18.2075 47.9859 18.8575C45.5777 18.7293 43.1657 18.6934 40.7499 18.7495C39.9622 18.9108 39.1701 19.0367 38.3739 19.1275C37.5731 19.2121 37.1052 18.852 36.9699 18.0475C37.1219 17.3795 37.4819 16.8755 38.0499 16.5355C38.8975 16.7451 39.7615 16.8892 40.6419 16.9675C42.5126 16.6655 44.3903 16.5201 46.2752 16.5313ZM23.902 16.5355C25.9202 16.6409 27.9362 16.7848 29.95 16.9675C30.7821 16.953 31.5921 16.809 32.3799 16.5355C33.6254 16.9198 33.9674 17.6939 33.4059 18.8575C33.0364 19.0595 32.6403 19.1494 32.2179 19.1275C31.4544 19.0504 30.6984 18.9245 29.95 18.7495C27.571 18.7053 25.1951 18.7414 22.822 18.8575C22.3042 18.2759 22.0882 17.61 22.174 16.8595C22.761 16.7353 23.3369 16.6273 23.902 16.5355ZM40.6769 20.6191C41.5047 20.6134 42.3211 20.7103 43.1259 20.9096C43.2932 21.0407 43.4191 21.2027 43.5039 21.3956C43.5914 21.9093 43.5553 22.4134 43.3959 22.9076C43.2427 23.0113 43.0807 23.1012 42.9099 23.1776C41.8299 23.2496 40.7499 23.2496 39.6699 23.1776C38.8627 22.8406 38.5927 22.2466 38.8599 21.3956C39.2082 21.0153 39.6222 20.7633 40.1019 20.6396C40.2942 20.6273 40.4859 20.6204 40.6769 20.6191ZM28.9244 20.6329C29.5186 20.6329 30.1125 20.6531 30.706 20.6936C31.3089 20.8278 31.7588 21.1698 32.0559 21.7196C31.9513 22.7588 31.3573 23.2807 30.274 23.2856C29.59 23.3576 28.9059 23.3576 28.222 23.2856C26.9058 22.8539 26.6537 22.0979 27.466 21.0176C27.753 20.8579 28.0411 20.7319 28.33 20.6396C28.5281 20.6351 28.7262 20.6329 28.9244 20.6329ZM33.5139 26.1477C33.8132 26.1391 34.1011 26.1931 34.3779 26.3097C34.7492 26.6364 35.1092 26.9784 35.4579 27.3357C35.6872 27.0391 35.9032 26.7331 36.1059 26.4177C37.3572 26.1903 38.5091 26.4423 39.5619 27.1737C40.0083 27.5118 40.4223 27.8899 40.8039 28.3077C42.177 31.0927 42.537 34.0087 41.8839 37.0559C41.7676 37.6308 41.4976 38.1168 41.0739 38.5139C40.2086 38.7556 39.5787 38.4856 39.1839 37.7039C39.2916 35.8346 39.3276 33.9626 39.2919 32.0878C38.9018 30.4949 37.9838 29.3249 36.5379 28.5777C36.1943 28.216 35.8343 27.874 35.4579 27.5517C34.5609 28.324 33.6249 29.0441 32.6499 29.7117C31.912 30.5377 31.498 31.5098 31.408 32.6278C31.3378 34.0364 31.3918 35.4404 31.57 36.8399C31.6669 38.1646 31.055 38.7227 29.734 38.5139C29.3474 38.2298 29.0774 37.8518 28.924 37.3799C28.6073 35.3705 28.5713 33.3544 28.816 31.3318C29.2075 28.5114 30.7735 26.7834 33.5139 26.1477Z" fill="white"/>
<path fill-rule="evenodd" clip-rule="evenodd" d="M16.9899 31.5478C17.7144 31.4153 18.3084 31.6313 18.7719 32.1958C19.379 33.5861 20.027 34.954 20.7159 36.2998C22.5382 39.1997 25.0762 41.2337 28.3299 42.402C35.1611 44.794 41.4971 43.858 47.3378 39.5939C49.3621 37.5812 50.856 35.2231 51.8198 32.5198C52.2226 31.8264 52.8166 31.5204 53.6018 31.6018C56.6413 33.2345 58.0272 35.7726 57.7598 39.2159C57.2549 40.9459 56.193 42.2239 54.5738 43.05C52.5931 43.6084 50.7931 44.5083 49.1738 45.75C46.8159 48.1081 44.4578 50.4662 42.0999 52.8242C39.8624 55.4031 37.6484 57.9951 35.4579 60.6004C34.6939 60.1065 34.0999 59.4584 33.6759 58.6563C31.8967 56.6805 30.1687 54.6644 28.4919 52.6082C26.2419 50.3582 23.9919 48.1081 21.7419 45.858C21.1957 45.4199 20.6196 45.0238 20.0139 44.67C18.592 43.9801 17.152 43.3321 15.6939 42.726C12.9023 40.8315 12.2003 38.3295 13.5879 35.2198C14.3716 33.6625 15.5056 32.4384 16.9899 31.5478Z" fill="white"/>
</g>
<defs>
<clipPath id="clip0_2199_468">
<rect width="70" height="70" fill="white"/>
</clipPath>
</defs>
</svg>
